<?xml version="1.0" encoding="UTF-8" standalone="no"?>
<!DOCTYPE svg PUBLIC "-//W3C//DTD SVG 1.1//EN"
 "http://www.w3.org/Graphics/SVG/1.1/DTD/svg11.dtd">
<!-- Generated by graphviz version 14.1.4 (20260321.0153)
 -->
<!-- Title: fig_architecture Pages: 1 -->
<svg width="1016pt" height="304pt"
 viewBox="0.00 0.00 1016.00 304.00" xmlns="http://www.w3.org/2000/svg" xmlns:xlink="http://www.w3.org/1999/xlink">
<g id="graph0" class="graph" transform="scale(1 1) rotate(0) translate(14.4 289.62)">
<title>fig_architecture</title>
<polygon fill="white" stroke="none" points="-14.4,14.4 -14.4,-289.62 1001.4,-289.62 1001.4,14.4 -14.4,14.4"/>
<g id="clust1" class="cluster">
<title>cluster_ext</title>
<polygon fill="none" stroke="#999999" stroke-dasharray="5,2" points="8,-15.76 8,-94.66 380,-94.66 380,-15.76 8,-15.76"/>
<text xml:space="preserve" text-anchor="middle" x="194" y="-80.21" font-family="Helvetica,sans-Serif" font-size="11.00">External services</text>
</g>
<g id="clust2" class="cluster">
<title>cluster_store</title>
<polygon fill="none" stroke="#999999" stroke-dasharray="5,2" points="396,-8 396,-102.42 979,-102.42 979,-8 396,-8"/>
<text xml:space="preserve" text-anchor="middle" x="687.5" y="-87.97" font-family="Helvetica,sans-Serif" font-size="11.00">Local stores</text>
</g>
<!-- cli -->
<g id="node1" class="node">
<title>cli</title>
<path fill="#f4f4f2" stroke="#555555" d="M498.21,-192.82C498.21,-192.82 395.79,-192.82 395.79,-192.82 389.79,-192.82 383.79,-186.82 383.79,-180.82 383.79,-180.82 383.79,-163.43 383.79,-163.43 383.79,-157.43 389.79,-151.43 395.79,-151.43 395.79,-151.43 498.21,-151.43 498.21,-151.43 504.21,-151.43 510.21,-157.43 510.21,-163.43 510.21,-163.43 510.21,-180.82 510.21,-180.82 510.21,-186.82 504.21,-192.82 498.21,-192.82"/>
<text xml:space="preserve" text-anchor="middle" x="447" y="-175.18" font-family="Helvetica,sans-Serif" font-size="11.00">PaperOps CLI</text>
<text xml:space="preserve" text-anchor="middle" x="447" y="-161.68" font-family="Helvetica,sans-Serif" font-size="11.00">(scripts/paperops.py)</text>
</g>
<!-- grobid -->
<g id="node2" class="node">
<title>grobid</title>
<path fill="#f4f4f2" stroke="#555555" d="M73.71,-65.16C73.71,-65.16 28.29,-65.16 28.29,-65.16 22.29,-65.16 16.29,-59.16 16.29,-53.16 16.29,-53.16 16.29,-35.76 16.29,-35.76 16.29,-29.76 22.29,-23.76 28.29,-23.76 28.29,-23.76 73.71,-23.76 73.71,-23.76 79.71,-23.76 85.71,-29.76 85.71,-35.76 85.71,-35.76 85.71,-53.16 85.71,-53.16 85.71,-59.16 79.71,-65.16 73.71,-65.16"/>
<text xml:space="preserve" text-anchor="middle" x="51" y="-47.51" font-family="Helvetica,sans-Serif" font-size="11.00">GROBID</text>
<text xml:space="preserve" text-anchor="middle" x="51" y="-34.01" font-family="Helvetica,sans-Serif" font-size="11.00">(Docker)</text>
</g>
<!-- cli&#45;&gt;grobid -->
<g id="edge2" class="edge">
<title>cli&#45;&gt;grobid</title>
<path fill="none" stroke="#555555" d="M374.86,-179C374.86,-179 51,-179 51,-179 51,-179 51,-74 51,-74"/>
<polygon fill="#555555" stroke="#555555" points="374.86,-181.45 381.86,-179 374.86,-176.55 374.86,-181.45"/>
<polygon fill="#555555" stroke="#555555" points="53.45,-74 51,-67 48.55,-74 53.45,-74"/>
</g>
<!-- zotero -->
<g id="node3" class="node">
<title>zotero</title>
<path fill="#f4f4f2" stroke="#555555" d="M198.34,-65.16C198.34,-65.16 129.66,-65.16 129.66,-65.16 123.66,-65.16 117.66,-59.16 117.66,-53.16 117.66,-53.16 117.66,-35.76 117.66,-35.76 117.66,-29.76 123.66,-23.76 129.66,-23.76 129.66,-23.76 198.34,-23.76 198.34,-23.76 204.34,-23.76 210.34,-29.76 210.34,-35.76 210.34,-35.76 210.34,-53.16 210.34,-53.16 210.34,-59.16 204.34,-65.16 198.34,-65.16"/>
<text xml:space="preserve" text-anchor="middle" x="164" y="-47.51" font-family="Helvetica,sans-Serif" font-size="11.00">Zotero +</text>
<text xml:space="preserve" text-anchor="middle" x="164" y="-34.01" font-family="Helvetica,sans-Serif" font-size="11.00">Better BibTeX</text>
</g>
<!-- cli&#45;&gt;zotero -->
<g id="edge3" class="edge">
<title>cli&#45;&gt;zotero</title>
<path fill="none" stroke="#555555" d="M374.98,-165C374.98,-165 164,-165 164,-165 164,-165 164,-73.97 164,-73.97"/>
<polygon fill="#555555" stroke="#555555" points="374.98,-167.45 381.98,-165 374.98,-162.55 374.98,-167.45"/>
<polygon fill="#555555" stroke="#555555" points="166.45,-73.97 164,-66.97 161.55,-73.97 166.45,-73.97"/>
</g>
<!-- apis -->
<g id="node4" class="node">
<title>apis</title>
<path fill="#f4f4f2" stroke="#555555" d="M360.08,-65.16C360.08,-65.16 253.92,-65.16 253.92,-65.16 247.92,-65.16 241.92,-59.16 241.92,-53.16 241.92,-53.16 241.92,-35.76 241.92,-35.76 241.92,-29.76 247.92,-23.76 253.92,-23.76 253.92,-23.76 360.08,-23.76 360.08,-23.76 366.08,-23.76 372.08,-29.76 372.08,-35.76 372.08,-35.76 372.08,-53.16 372.08,-53.16 372.08,-59.16 366.08,-65.16 360.08,-65.16"/>
<text xml:space="preserve" text-anchor="middle" x="307" y="-47.51" font-family="Helvetica,sans-Serif" font-size="11.00">Paper APIs</text>
<text xml:space="preserve" text-anchor="middle" x="307" y="-34.01" font-family="Helvetica,sans-Serif" font-size="11.00">(arXiv, S2, OpenAlex)</text>
</g>
<!-- cli&#45;&gt;apis -->
<g id="edge1" class="edge">
<title>cli&#45;&gt;apis</title>
<path fill="none" stroke="#555555" d="M393.73,-142.45C393.73,-142.45 393.73,-44 393.73,-44 393.73,-44 380.8,-44 380.8,-44"/>
<polygon fill="#555555" stroke="#555555" points="391.28,-142.45 393.73,-149.45 396.18,-142.45 391.28,-142.45"/>
<polygon fill="#555555" stroke="#555555" points="380.8,-41.55 373.8,-44 380.8,-46.45 380.8,-41.55"/>
</g>
<!-- db -->
<g id="node5" class="node">
<title>db</title>
<path fill="#eaf4ea" stroke="#555555" d="M490.33,-60.16C490.33,-62.08 470.91,-63.64 447,-63.64 423.09,-63.64 403.67,-62.08 403.67,-60.16 403.67,-60.16 403.67,-28.77 403.67,-28.77 403.67,-26.84 423.09,-25.28 447,-25.28 470.91,-25.28 490.33,-26.84 490.33,-28.77 490.33,-28.77 490.33,-60.16 490.33,-60.16"/>
<path fill="none" stroke="#555555" d="M490.33,-60.16C490.33,-58.23 470.91,-56.67 447,-56.67 423.09,-56.67 403.67,-58.23 403.67,-60.16"/>
<text xml:space="preserve" text-anchor="middle" x="447" y="-40.76" font-family="Helvetica,sans-Serif" font-size="11.00">papers.sqlite</text>
</g>
<!-- cli&#45;&gt;db -->
<g id="edge4" class="edge">
<title>cli&#45;&gt;db</title>
<path fill="none" stroke="#555555" d="M447,-142.53C447,-142.53 447,-72.41 447,-72.41"/>
<polygon fill="#555555" stroke="#555555" points="444.55,-142.53 447,-149.53 449.45,-142.53 444.55,-142.53"/>
<polygon fill="#555555" stroke="#555555" points="449.45,-72.41 447,-65.41 444.55,-72.41 449.45,-72.41"/>
</g>
<!-- matrices -->
<g id="node6" class="node">
<title>matrices</title>
<path fill="#eaf4ea" stroke="#555555" d="M675.34,-67.75C675.34,-70.61 641.12,-72.92 599,-72.92 556.88,-72.92 522.66,-70.61 522.66,-67.75 522.66,-67.75 522.66,-21.18 522.66,-21.18 522.66,-18.32 556.88,-16 599,-16 641.12,-16 675.34,-18.32 675.34,-21.18 675.34,-21.18 675.34,-67.75 675.34,-67.75"/>
<path fill="none" stroke="#555555" d="M675.34,-67.75C675.34,-64.89 641.12,-62.58 599,-62.58 556.88,-62.58 522.66,-64.89 522.66,-67.75"/>
<text xml:space="preserve" text-anchor="middle" x="599" y="-47.51" font-family="Helvetica,sans-Serif" font-size="11.00">matrices/</text>
<text xml:space="preserve" text-anchor="middle" x="599" y="-34.01" font-family="Helvetica,sans-Serif" font-size="11.00">(evidence, screening, gap)</text>
</g>
<!-- cli&#45;&gt;matrices -->
<g id="edge5" class="edge">
<title>cli&#45;&gt;matrices</title>
<path fill="none" stroke="#555555" d="M500.27,-142.74C500.27,-142.74 500.27,-69 500.27,-69 500.27,-69 513.67,-69 513.67,-69"/>
<polygon fill="#555555" stroke="#555555" points="497.82,-142.74 500.27,-149.74 502.72,-142.74 497.82,-142.74"/>
<polygon fill="#555555" stroke="#555555" points="513.67,-71.45 520.67,-69 513.67,-66.55 513.67,-71.45"/>
</g>
<!-- manuscript -->
<g id="node7" class="node">
<title>manuscript</title>
<path fill="#eaf4ea" stroke="#555555" d="M806.71,-67.75C806.71,-70.61 784.43,-72.92 757,-72.92 729.57,-72.92 707.29,-70.61 707.29,-67.75 707.29,-67.75 707.29,-21.18 707.29,-21.18 707.29,-18.32 729.57,-16 757,-16 784.43,-16 806.71,-18.32 806.71,-21.18 806.71,-21.18 806.71,-67.75 806.71,-67.75"/>
<path fill="none" stroke="#555555" d="M806.71,-67.75C806.71,-64.89 784.43,-62.58 757,-62.58 729.57,-62.58 707.29,-64.89 707.29,-67.75"/>
<text xml:space="preserve" text-anchor="middle" x="757" y="-47.51" font-family="Helvetica,sans-Serif" font-size="11.00">05_manuscript/</text>
<text xml:space="preserve" text-anchor="middle" x="757" y="-34.01" font-family="Helvetica,sans-Serif" font-size="11.00">(Quarto)</text>
</g>
<!-- cli&#45;&gt;manuscript -->
<g id="edge6" class="edge">
<title>cli&#45;&gt;manuscript</title>
<path fill="none" stroke="#555555" d="M510.48,-165C601.18,-165 757,-165 757,-165 757,-165 757,-81.85 757,-81.85"/>
<polygon fill="#555555" stroke="#555555" points="759.45,-81.85 757,-74.85 754.55,-81.85 759.45,-81.85"/>
<text xml:space="preserve" text-anchor="middle" x="697" y="-122.88" font-family="Helvetica,sans-Serif" font-size="9.00">guarded</text>
<text xml:space="preserve" text-anchor="middle" x="697" y="-112.38" font-family="Helvetica,sans-Serif" font-size="9.00">apply only</text>
</g>
<!-- reports -->
<g id="node8" class="node">
<title>reports</title>
<path fill="#eaf4ea" stroke="#555555" d="M970.84,-67.75C970.84,-70.61 941.33,-72.92 905,-72.92 868.67,-72.92 839.16,-70.61 839.16,-67.75 839.16,-67.75 839.16,-21.18 839.16,-21.18 839.16,-18.32 868.67,-16 905,-16 941.33,-16 970.84,-18.32 970.84,-21.18 970.84,-21.18 970.84,-67.75 970.84,-67.75"/>
<path fill="none" stroke="#555555" d="M970.84,-67.75C970.84,-64.89 941.33,-62.58 905,-62.58 868.67,-62.58 839.16,-64.89 839.16,-67.75"/>
<text xml:space="preserve" text-anchor="middle" x="905" y="-47.51" font-family="Helvetica,sans-Serif" font-size="11.00">reports/</text>
<text xml:space="preserve" text-anchor="middle" x="905" y="-34.01" font-family="Helvetica,sans-Serif" font-size="11.00">(audit, review, figures)</text>
</g>
<!-- cli&#45;&gt;reports -->
<g id="edge7" class="edge">
<title>cli&#45;&gt;reports</title>
<path fill="none" stroke="#555555" d="M510.68,-179C636.53,-179 905,-179 905,-179 905,-179 905,-81.84 905,-81.84"/>
<polygon fill="#555555" stroke="#555555" points="907.45,-81.84 905,-74.84 902.55,-81.84 907.45,-81.84"/>
</g>
<!-- config -->
<g id="node9" class="node">
<title>config</title>
<polygon fill="#f4f4f2" stroke="#555555" points="525.21,-275.22 522.21,-279.22 501.21,-279.22 498.21,-275.22 368.79,-275.22 368.79,-233.82 525.21,-233.82 525.21,-275.22"/>
<text xml:space="preserve" text-anchor="middle" x="447" y="-257.57" font-family="Helvetica,sans-Serif" font-size="11.00">config/</text>
<text xml:space="preserve" text-anchor="middle" x="447" y="-244.07" font-family="Helvetica,sans-Serif" font-size="11.00">(sources, scoring, prompts)</text>
</g>
<!-- config&#45;&gt;cli -->
<g id="edge8" class="edge">
<title>config&#45;&gt;cli</title>
<path fill="none" stroke="#555555" d="M447,-233.73C447,-233.73 447,-201.71 447,-201.71"/>
<polygon fill="#555555" stroke="#555555" points="449.45,-201.71 447,-194.71 444.55,-201.71 449.45,-201.71"/>
</g>
</g>
</svg>
