<?xml version="1.0" encoding="UTF-8" standalone="no"?>
<!DOCTYPE svg PUBLIC "-//W3C//DTD SVG 1.1//EN"
 "http://www.w3.org/Graphics/SVG/1.1/DTD/svg11.dtd">
<!-- Generated by graphviz version 14.1.4 (20260321.0153)
 -->
<!-- Title: fig_guarded_apply Pages: 1 -->
<svg width="299pt" height="497pt"
 viewBox="0.00 0.00 299.00 497.00" xmlns="http://www.w3.org/2000/svg" xmlns:xlink="http://www.w3.org/1999/xlink">
<g id="graph0" class="graph" transform="scale(1 1) rotate(0) translate(14.4 482.46)">
<title>fig_guarded_apply</title>
<polygon fill="white" stroke="none" points="-14.4,14.4 -14.4,-482.46 284.44,-482.46 284.44,14.4 -14.4,14.4"/>
<!-- preview -->
<g id="node1" class="node">
<title>preview</title>
<path fill="#f4f4f2" stroke="#555555" d="M162.42,-468.06C162.42,-468.06 72.75,-468.06 72.75,-468.06 66.75,-468.06 60.75,-462.06 60.75,-456.06 60.75,-456.06 60.75,-438.66 60.75,-438.66 60.75,-432.66 66.75,-426.66 72.75,-426.66 72.75,-426.66 162.42,-426.66 162.42,-426.66 168.42,-426.66 174.42,-432.66 174.42,-438.66 174.42,-438.66 174.42,-456.06 174.42,-456.06 174.42,-462.06 168.42,-468.06 162.42,-468.06"/>
<text xml:space="preserve" text-anchor="middle" x="117.58" y="-450.41" font-family="Helvetica,sans-Serif" font-size="11.00">Patch Preview</text>
<text xml:space="preserve" text-anchor="middle" x="117.58" y="-436.91" font-family="Helvetica,sans-Serif" font-size="11.00">(CSV + MD + diff)</text>
</g>
<!-- review -->
<g id="node2" class="node">
<title>review</title>
<path fill="#ffe9c7" stroke="#555555" d="M120.42,-376.16C120.42,-376.16 24.75,-376.16 24.75,-376.16 18.75,-376.16 12.75,-370.16 12.75,-364.16 12.75,-364.16 12.75,-352.16 12.75,-352.16 12.75,-346.16 18.75,-340.16 24.75,-340.16 24.75,-340.16 120.42,-340.16 120.42,-340.16 126.42,-340.16 132.42,-346.16 132.42,-352.16 132.42,-352.16 132.42,-364.16 132.42,-364.16 132.42,-370.16 126.42,-376.16 120.42,-376.16"/>
<text xml:space="preserve" text-anchor="middle" x="72.58" y="-354.46" font-family="Helvetica,sans-Serif" font-size="11.00">Human Diff Review</text>
</g>
<!-- preview&#45;&gt;review -->
<g id="edge1" class="edge">
<title>preview&#45;&gt;review</title>
<path fill="none" stroke="#555555" d="M108.53,-426.22C108.53,-426.22 108.53,-384.95 108.53,-384.95"/>
<polygon fill="#555555" stroke="#555555" points="110.98,-384.95 108.53,-377.95 106.08,-384.95 110.98,-384.95"/>
</g>
<!-- review&#45;&gt;preview -->
<g id="edge3" class="edge">
<title>review&#45;&gt;preview</title>
<path fill="none" stroke="#555555" stroke-dasharray="5,2" d="M84.64,-376.64C84.64,-376.64 84.64,-417.89 84.64,-417.89"/>
<polygon fill="#555555" stroke="#555555" points="82.19,-417.89 84.64,-424.89 87.09,-417.89 82.19,-417.89"/>
<text xml:space="preserve" text-anchor="middle" x="149.83" y="-398.11" font-family="Helvetica,sans-Serif" font-size="9.00">rejected / revise</text>
</g>
<!-- backup -->
<g id="node3" class="node">
<title>backup</title>
<path fill="#f4f4f2" stroke="#555555" d="M115.17,-289.66C115.17,-289.66 30,-289.66 30,-289.66 24,-289.66 18,-283.66 18,-277.66 18,-277.66 18,-265.66 18,-265.66 18,-259.66 24,-253.66 30,-253.66 30,-253.66 115.17,-253.66 115.17,-253.66 121.17,-253.66 127.17,-259.66 127.17,-265.66 127.17,-265.66 127.17,-277.66 127.17,-277.66 127.17,-283.66 121.17,-289.66 115.17,-289.66"/>
<text xml:space="preserve" text-anchor="middle" x="72.58" y="-267.96" font-family="Helvetica,sans-Serif" font-size="11.00">Backup Chapters</text>
</g>
<!-- review&#45;&gt;backup -->
<g id="edge2" class="edge">
<title>review&#45;&gt;backup</title>
<path fill="none" stroke="#555555" d="M72.58,-339.82C72.58,-339.82 72.58,-298.49 72.58,-298.49"/>
<polygon fill="#555555" stroke="#555555" points="75.04,-298.49 72.59,-291.49 70.14,-298.49 75.04,-298.49"/>
<text xml:space="preserve" text-anchor="middle" x="92.08" y="-311.61" font-family="Helvetica,sans-Serif" font-size="9.00">approved</text>
</g>
<!-- apply -->
<g id="node4" class="node">
<title>apply</title>
<path fill="#f4f4f2" stroke="#555555" d="M133.17,-212.66C133.17,-212.66 12,-212.66 12,-212.66 6,-212.66 0,-206.66 0,-200.66 0,-200.66 0,-183.26 0,-183.26 0,-177.26 6,-171.26 12,-171.26 12,-171.26 133.17,-171.26 133.17,-171.26 139.17,-171.26 145.17,-177.26 145.17,-183.26 145.17,-183.26 145.17,-200.66 145.17,-200.66 145.17,-206.66 139.17,-212.66 133.17,-212.66"/>
<text xml:space="preserve" text-anchor="middle" x="72.58" y="-195.01" font-family="Helvetica,sans-Serif" font-size="11.00">Apply</text>
<text xml:space="preserve" text-anchor="middle" x="72.58" y="-181.51" font-family="Helvetica,sans-Serif" font-size="11.00">(SHA&#45;checked, LF write)</text>
</g>
<!-- backup&#45;&gt;apply -->
<g id="edge4" class="edge">
<title>backup&#45;&gt;apply</title>
<path fill="none" stroke="#555555" d="M72.58,-253.18C72.58,-253.18 72.58,-221.39 72.58,-221.39"/>
<polygon fill="#555555" stroke="#555555" points="75.04,-221.39 72.59,-214.39 70.14,-221.39 75.04,-221.39"/>
</g>
<!-- postguard -->
<g id="node5" class="node">
<title>postguard</title>
<path fill="#dce9f7" stroke="#555555" d="M126.79,-130.26C126.79,-130.26 18.38,-130.26 18.38,-130.26 12.38,-130.26 6.38,-124.26 6.38,-118.26 6.38,-118.26 6.38,-100.86 6.38,-100.86 6.38,-94.86 12.38,-88.86 18.38,-88.86 18.38,-88.86 126.79,-88.86 126.79,-88.86 132.79,-88.86 138.79,-94.86 138.79,-100.86 138.79,-100.86 138.79,-118.26 138.79,-118.26 138.79,-124.26 132.79,-130.26 126.79,-130.26"/>
<text xml:space="preserve" text-anchor="middle" x="72.58" y="-112.61" font-family="Helvetica,sans-Serif" font-size="11.00">guard&#45;no&#45;auto&#45;verified</text>
<text xml:space="preserve" text-anchor="middle" x="72.58" y="-99.11" font-family="Helvetica,sans-Serif" font-size="11.00">+ smoke&#45;test</text>
</g>
<!-- apply&#45;&gt;postguard -->
<g id="edge5" class="edge">
<title>apply&#45;&gt;postguard</title>
<path fill="none" stroke="#555555" d="M72.58,-171.17C72.58,-171.17 72.58,-139.15 72.58,-139.15"/>
<polygon fill="#555555" stroke="#555555" points="75.04,-139.15 72.59,-132.15 70.14,-139.15 75.04,-139.15"/>
</g>
<!-- report -->
<g id="node6" class="node">
<title>report</title>
<path fill="#eaf4ea" stroke="#555555" d="M107.04,-34.88C107.04,-36.8 87.12,-38.36 62.58,-38.36 38.05,-38.36 18.12,-36.8 18.12,-34.88 18.12,-34.88 18.12,-3.49 18.12,-3.49 18.12,-1.56 38.05,0 62.58,0 87.12,0 107.04,-1.56 107.04,-3.49 107.04,-3.49 107.04,-34.88 107.04,-34.88"/>
<path fill="none" stroke="#555555" d="M107.04,-34.88C107.04,-32.95 87.12,-31.39 62.58,-31.39 38.05,-31.39 18.12,-32.95 18.12,-34.88"/>
<text xml:space="preserve" text-anchor="middle" x="62.58" y="-15.48" font-family="Helvetica,sans-Serif" font-size="11.00">Apply Report</text>
</g>
<!-- postguard&#45;&gt;report -->
<g id="edge6" class="edge">
<title>postguard&#45;&gt;report</title>
<path fill="none" stroke="#555555" d="M62.58,-88.6C62.58,-88.6 62.58,-47.31 62.58,-47.31"/>
<polygon fill="#555555" stroke="#555555" points="65.04,-47.31 62.59,-40.31 60.14,-47.31 65.04,-47.31"/>
<text xml:space="preserve" text-anchor="middle" x="72.33" y="-60.31" font-family="Helvetica,sans-Serif" font-size="9.00">pass</text>
</g>
<!-- rollback -->
<g id="node7" class="node">
<title>rollback</title>
<path fill="#f7dcdc" stroke="#555555" d="M258.04,-37.18C258.04,-37.18 151.12,-37.18 151.12,-37.18 145.12,-37.18 139.12,-31.18 139.12,-25.18 139.12,-25.18 139.12,-13.18 139.12,-13.18 139.12,-7.18 145.12,-1.18 151.12,-1.18 151.12,-1.18 258.04,-1.18 258.04,-1.18 264.04,-1.18 270.04,-7.18 270.04,-13.18 270.04,-13.18 270.04,-25.18 270.04,-25.18 270.04,-31.18 264.04,-37.18 258.04,-37.18"/>
<text xml:space="preserve" text-anchor="middle" x="204.58" y="-15.48" font-family="Helvetica,sans-Serif" font-size="11.00">Rollback from Backup</text>
</g>
<!-- postguard&#45;&gt;rollback -->
<g id="edge7" class="edge">
<title>postguard&#45;&gt;rollback</title>
<path fill="none" stroke="#555555" stroke-dasharray="5,2" d="M122.92,-88.56C122.92,-61.8 122.92,-19 122.92,-19 122.92,-19 130.15,-19 130.15,-19"/>
<polygon fill="#555555" stroke="#555555" points="130.15,-21.45 137.15,-19 130.15,-16.55 130.15,-21.45"/>
<text xml:space="preserve" text-anchor="middle" x="151.58" y="-60.31" font-family="Helvetica,sans-Serif" font-size="9.00">fail</text>
</g>
<!-- rollback&#45;&gt;preview -->
<g id="edge8" class="edge">
<title>rollback&#45;&gt;preview</title>
<path fill="none" stroke="#555555" stroke-dasharray="5,2" d="M159.8,-37.58C159.8,-37.58 159.8,-417.8 159.8,-417.8"/>
<polygon fill="#555555" stroke="#555555" points="157.35,-417.8 159.8,-424.8 162.25,-417.8 157.35,-417.8"/>
</g>
</g>
</svg>
