<?xml version="1.0" encoding="UTF-8" standalone="no"?>
<!DOCTYPE svg PUBLIC "-//W3C//DTD SVG 1.1//EN"
 "http://www.w3.org/Graphics/SVG/1.1/DTD/svg11.dtd">
<!-- Generated by graphviz version 14.1.4 (20260321.0153)
 -->
<!-- Title: fig_verification_states Pages: 1 -->
<svg width="848pt" height="189pt"
 viewBox="0.00 0.00 848.00 189.00" xmlns="http://www.w3.org/2000/svg" xmlns:xlink="http://www.w3.org/1999/xlink">
<g id="graph0" class="graph" transform="scale(1 1) rotate(0) translate(14.4 174.1)">
<title>fig_verification_states</title>
<polygon fill="white" stroke="none" points="-14.4,14.4 -14.4,-174.1 833.42,-174.1 833.42,14.4 -14.4,14.4"/>
<!-- extracted -->
<g id="node1" class="node">
<title>extracted</title>
<path fill="#f4f4f2" stroke="#555555" d="M82.55,-60C82.55,-60 36.38,-60 36.38,-60 30.38,-60 24.38,-54 24.38,-48 24.38,-48 24.38,-36 24.38,-36 24.38,-30 30.38,-24 36.38,-24 36.38,-24 82.55,-24 82.55,-24 88.55,-24 94.55,-30 94.55,-36 94.55,-36 94.55,-48 94.55,-48 94.55,-54 88.55,-60 82.55,-60"/>
<text xml:space="preserve" text-anchor="middle" x="59.46" y="-38.3" font-family="Helvetica,sans-Serif" font-size="11.00">extracted</text>
</g>
<!-- validated -->
<g id="node2" class="node">
<title>validated</title>
<path fill="#f4f4f2" stroke="#555555" d="M220.34,-62.7C220.34,-62.7 171.92,-62.7 171.92,-62.7 165.92,-62.7 159.92,-56.7 159.92,-50.7 159.92,-50.7 159.92,-33.3 159.92,-33.3 159.92,-27.3 165.92,-21.3 171.92,-21.3 171.92,-21.3 220.34,-21.3 220.34,-21.3 226.34,-21.3 232.34,-27.3 232.34,-33.3 232.34,-33.3 232.34,-50.7 232.34,-50.7 232.34,-56.7 226.34,-62.7 220.34,-62.7"/>
<text xml:space="preserve" text-anchor="middle" x="196.13" y="-45.05" font-family="Helvetica,sans-Serif" font-size="11.00">candidate</text>
<text xml:space="preserve" text-anchor="middle" x="196.13" y="-31.55" font-family="Helvetica,sans-Serif" font-size="11.00">validated</text>
</g>
<!-- extracted&#45;&gt;validated -->
<g id="edge1" class="edge">
<title>extracted&#45;&gt;validated</title>
<path fill="none" stroke="#555555" d="M95.01,-42C95.01,-42 151.29,-42 151.29,-42"/>
<polygon fill="#555555" stroke="#555555" points="151.29,-44.45 158.29,-42 151.29,-39.55 151.29,-44.45"/>
</g>
<!-- in_review -->
<g id="node3" class="node">
<title>in_review</title>
<path fill="#ffe9c7" stroke="#555555" d="M330.01,-60C330.01,-60 285.34,-60 285.34,-60 279.34,-60 273.34,-54 273.34,-48 273.34,-48 273.34,-36 273.34,-36 273.34,-30 279.34,-24 285.34,-24 285.34,-24 330.01,-24 330.01,-24 336.01,-24 342.01,-30 342.01,-36 342.01,-36 342.01,-48 342.01,-48 342.01,-54 336.01,-60 330.01,-60"/>
<text xml:space="preserve" text-anchor="middle" x="307.68" y="-38.3" font-family="Helvetica,sans-Serif" font-size="11.00">in review</text>
</g>
<!-- validated&#45;&gt;in_review -->
<g id="edge2" class="edge">
<title>validated&#45;&gt;in_review</title>
<path fill="none" stroke="#555555" d="M232.65,-42C232.65,-42 264.45,-42 264.45,-42"/>
<polygon fill="#555555" stroke="#555555" points="264.45,-44.45 271.45,-42 264.45,-39.55 264.45,-44.45"/>
</g>
<!-- promoted -->
<g id="node4" class="node">
<title>promoted</title>
<path fill="#eaf4ea" stroke="#555555" d="M532.43,-119.29C532.43,-122.14 510.65,-124.46 483.85,-124.46 457.04,-124.46 435.26,-122.14 435.26,-119.29 435.26,-119.29 435.26,-72.71 435.26,-72.71 435.26,-69.86 457.04,-67.54 483.85,-67.54 510.65,-67.54 532.43,-69.86 532.43,-72.71 532.43,-72.71 532.43,-119.29 532.43,-119.29"/>
<path fill="none" stroke="#555555" d="M532.43,-119.29C532.43,-116.43 510.65,-114.11 483.85,-114.11 457.04,-114.11 435.26,-116.43 435.26,-119.29"/>
<text xml:space="preserve" text-anchor="middle" x="483.85" y="-99.05" font-family="Helvetica,sans-Serif" font-size="11.00">promoted</text>
<text xml:space="preserve" text-anchor="middle" x="483.85" y="-85.55" font-family="Helvetica,sans-Serif" font-size="11.00">(verified=false)</text>
</g>
<!-- in_review&#45;&gt;promoted -->
<g id="edge3" class="edge">
<title>in_review&#45;&gt;promoted</title>
<path fill="none" stroke="#555555" d="M342.18,-48C382.28,-48 443.02,-48 443.02,-48 443.02,-48 443.02,-60.12 443.02,-60.12"/>
<polygon fill="#555555" stroke="#555555" points="440.57,-60.12 443.02,-67.12 445.47,-60.12 440.57,-60.12"/>
<text xml:space="preserve" text-anchor="middle" x="388.64" y="-82.95" font-family="Helvetica,sans-Serif" font-size="9.00">human keep</text>
</g>
<!-- rejected -->
<g id="node7" class="node">
<title>rejected</title>
<path fill="#f7dcdc" stroke="#555555" d="M503.93,-36C503.93,-36 463.76,-36 463.76,-36 457.76,-36 451.76,-30 451.76,-24 451.76,-24 451.76,-12 451.76,-12 451.76,-6 457.76,0 463.76,0 463.76,0 503.93,0 503.93,0 509.93,0 515.93,-6 515.93,-12 515.93,-12 515.93,-24 515.93,-24 515.93,-30 509.93,-36 503.93,-36"/>
<text xml:space="preserve" text-anchor="middle" x="483.85" y="-14.3" font-family="Helvetica,sans-Serif" font-size="11.00">rejected</text>
</g>
<!-- in_review&#45;&gt;rejected -->
<g id="edge4" class="edge">
<title>in_review&#45;&gt;rejected</title>
<path fill="none" stroke="#555555" d="M342.48,-30C342.48,-30 442.97,-30 442.97,-30"/>
<polygon fill="#555555" stroke="#555555" points="442.97,-32.45 449.97,-30 442.97,-27.55 442.97,-32.45"/>
<text xml:space="preserve" text-anchor="middle" x="388.64" y="-19.95" font-family="Helvetica,sans-Serif" font-size="9.00">human reject</text>
</g>
<!-- pdf_check -->
<g id="node5" class="node">
<title>pdf_check</title>
<path fill="#f4f4f2" stroke="#555555" d="M633.1,-159.7C633.1,-159.7 585.43,-159.7 585.43,-159.7 579.43,-159.7 573.43,-153.7 573.43,-147.7 573.43,-147.7 573.43,-130.3 573.43,-130.3 573.43,-124.3 579.43,-118.3 585.43,-118.3 585.43,-118.3 633.1,-118.3 633.1,-118.3 639.1,-118.3 645.1,-124.3 645.1,-130.3 645.1,-130.3 645.1,-147.7 645.1,-147.7 645.1,-153.7 639.1,-159.7 633.1,-159.7"/>
<text xml:space="preserve" text-anchor="middle" x="609.27" y="-142.05" font-family="Helvetica,sans-Serif" font-size="11.00">pdf check</text>
<text xml:space="preserve" text-anchor="middle" x="609.27" y="-128.55" font-family="Helvetica,sans-Serif" font-size="11.00">required</text>
</g>
<!-- promoted&#45;&gt;pdf_check -->
<g id="edge5" class="edge">
<title>promoted&#45;&gt;pdf_check</title>
<path fill="none" stroke="#555555" d="M484.02,-124.76C484.02,-127.38 484.02,-129.08 484.02,-129.08 484.02,-129.08 564.53,-129.08 564.53,-129.08"/>
<polygon fill="#555555" stroke="#555555" points="564.53,-131.53 571.53,-129.08 564.53,-126.63 564.53,-131.53"/>
</g>
<!-- verified -->
<g id="node6" class="node">
<title>verified</title>
<path fill="#dce9f7" stroke="#555555" d="M807.02,-114C807.02,-114 745.1,-114 745.1,-114 739.1,-114 733.1,-108 733.1,-102 733.1,-102 733.1,-90 733.1,-90 733.1,-84 739.1,-78 745.1,-78 745.1,-78 807.02,-78 807.02,-78 813.02,-78 819.02,-84 819.02,-90 819.02,-90 819.02,-102 819.02,-102 819.02,-108 813.02,-114 807.02,-114"/>
<text xml:space="preserve" text-anchor="middle" x="776.06" y="-92.3" font-family="Helvetica,sans-Serif" font-size="11.00">verified=true</text>
</g>
<!-- promoted&#45;&gt;verified -->
<!-- pdf_check&#45;&gt;verified -->
<g id="edge6" class="edge">
<title>pdf_check&#45;&gt;verified</title>
<path fill="none" stroke="#555555" stroke-width="2" d="M609.02,-117.91C609.02,-109.6 609.02,-102 609.02,-102 609.02,-102 722.58,-102 722.58,-102"/>
<polygon fill="#555555" stroke="#555555" stroke-width="2" points="722.58,-104.45 729.58,-102 722.58,-99.55 722.58,-104.45"/>
<text xml:space="preserve" text-anchor="middle" x="689.1" y="-132.95" font-family="Helvetica,sans-Serif" font-size="9.00">human only</text>
</g>
<!-- noauto -->
<g id="node8" class="node">
<title>noauto</title>
<polygon fill="#fff7d6" stroke="#555555" points="112.92,-133.7 0,-133.7 0,-92.3 118.92,-92.3 118.92,-127.7 112.92,-133.7"/>
<polyline fill="none" stroke="#555555" points="112.92,-133.7 112.92,-127.7"/>
<polyline fill="none" stroke="#555555" points="118.92,-127.7 112.92,-127.7"/>
<text xml:space="preserve" text-anchor="middle" x="59.46" y="-116.05" font-family="Helvetica,sans-Serif" font-size="11.00">no automated edge</text>
<text xml:space="preserve" text-anchor="middle" x="59.46" y="-102.55" font-family="Helvetica,sans-Serif" font-size="11.00">into verified</text>
</g>
</g>
</svg>
