<?xml version="1.0" encoding="UTF-8" standalone="no"?>
<!DOCTYPE svg PUBLIC "-//W3C//DTD SVG 1.1//EN"
 "http://www.w3.org/Graphics/SVG/1.1/DTD/svg11.dtd">
<!-- Generated by graphviz version 14.1.4 (20260321.0153)
 -->
<!-- Title: fig_evidence_flow Pages: 1 -->
<svg width="940pt" height="178pt"
 viewBox="0.00 0.00 940.00 178.00" xmlns="http://www.w3.org/2000/svg" xmlns:xlink="http://www.w3.org/1999/xlink">
<g id="graph0" class="graph" transform="scale(1 1) rotate(0) translate(14.4 163.22)">
<title>fig_evidence_flow</title>
<polygon fill="white" stroke="none" points="-14.4,14.4 -14.4,-163.22 926.07,-163.22 926.07,14.4 -14.4,14.4"/>
<!-- cand -->
<g id="node1" class="node">
<title>cand</title>
<path fill="#f4f4f2" stroke="#555555" d="M140.67,-148.82C140.67,-148.82 17.25,-148.82 17.25,-148.82 11.25,-148.82 5.25,-142.82 5.25,-136.82 5.25,-136.82 5.25,-119.42 5.25,-119.42 5.25,-113.42 11.25,-107.42 17.25,-107.42 17.25,-107.42 140.67,-107.42 140.67,-107.42 146.67,-107.42 152.67,-113.42 152.67,-119.42 152.67,-119.42 152.67,-136.82 152.67,-136.82 152.67,-142.82 146.67,-148.82 140.67,-148.82"/>
<text xml:space="preserve" text-anchor="middle" x="78.96" y="-131.18" font-family="Helvetica,sans-Serif" font-size="11.00">Evidence Candidate</text>
<text xml:space="preserve" text-anchor="middle" x="78.96" y="-117.67" font-family="Helvetica,sans-Serif" font-size="11.00">(claim + quote + location)</text>
</g>
<!-- valid -->
<g id="node2" class="node">
<title>valid</title>
<path fill="#f4f4f2" stroke="#555555" d="M325.92,-148.82C325.92,-148.82 228,-148.82 228,-148.82 222,-148.82 216,-142.82 216,-136.82 216,-136.82 216,-119.42 216,-119.42 216,-113.42 222,-107.42 228,-107.42 228,-107.42 325.92,-107.42 325.92,-107.42 331.92,-107.42 337.92,-113.42 337.92,-119.42 337.92,-119.42 337.92,-136.82 337.92,-136.82 337.92,-142.82 331.92,-148.82 325.92,-148.82"/>
<text xml:space="preserve" text-anchor="middle" x="276.96" y="-131.18" font-family="Helvetica,sans-Serif" font-size="11.00">Structural Validation</text>
<text xml:space="preserve" text-anchor="middle" x="276.96" y="-117.67" font-family="Helvetica,sans-Serif" font-size="11.00">(schema, citekey)</text>
</g>
<!-- cand&#45;&gt;valid -->
<g id="edge1" class="edge">
<title>cand&#45;&gt;valid</title>
<path fill="none" stroke="#555555" d="M152.97,-128C152.97,-128 207.14,-128 207.14,-128"/>
<polygon fill="#555555" stroke="#555555" points="207.14,-130.45 214.14,-128 207.14,-125.55 207.14,-130.45"/>
</g>
<!-- align_note -->
<g id="node10" class="node">
<title>align_note</title>
<polygon fill="#fff7d6" stroke="#555555" points="151.92,-46.46 0,-46.46 0,-10.46 157.92,-10.46 157.92,-40.46 151.92,-46.46"/>
<polyline fill="none" stroke="#555555" points="151.92,-46.46 151.92,-40.46"/>
<polyline fill="none" stroke="#555555" points="157.92,-40.46 151.92,-40.46"/>
<text xml:space="preserve" text-anchor="middle" x="78.96" y="-24.76" font-family="Helvetica,sans-Serif" font-size="11.00">alignment != truth validation</text>
</g>
<!-- cand&#45;&gt;align_note -->
<!-- align -->
<g id="node3" class="node">
<title>align</title>
<path fill="#f4f4f2" stroke="#555555" d="M544.05,-148.82C544.05,-148.82 413.88,-148.82 413.88,-148.82 407.88,-148.82 401.88,-142.82 401.88,-136.82 401.88,-136.82 401.88,-119.42 401.88,-119.42 401.88,-113.42 407.88,-107.42 413.88,-107.42 413.88,-107.42 544.05,-107.42 544.05,-107.42 550.05,-107.42 556.05,-113.42 556.05,-119.42 556.05,-119.42 556.05,-136.82 556.05,-136.82 556.05,-142.82 550.05,-148.82 544.05,-148.82"/>
<text xml:space="preserve" text-anchor="middle" x="478.96" y="-131.18" font-family="Helvetica,sans-Serif" font-size="11.00">Source Alignment</text>
<text xml:space="preserve" text-anchor="middle" x="478.96" y="-117.67" font-family="Helvetica,sans-Serif" font-size="11.00">(quote match, page locate)</text>
</g>
<!-- valid&#45;&gt;align -->
<g id="edge2" class="edge">
<title>valid&#45;&gt;align</title>
<path fill="none" stroke="#555555" d="M338.39,-128C338.39,-128 393.22,-128 393.22,-128"/>
<polygon fill="#555555" stroke="#555555" points="393.22,-130.45 400.22,-128 393.22,-125.55 393.22,-130.45"/>
</g>
<!-- verified -->
<g id="node9" class="node">
<title>verified</title>
<path fill="#dce9f7" stroke="#555555" d="M310.55,-49.16C310.55,-49.16 243.38,-49.16 243.38,-49.16 237.38,-49.16 231.38,-43.16 231.38,-37.16 231.38,-37.16 231.38,-19.76 231.38,-19.76 231.38,-13.76 237.38,-7.76 243.38,-7.76 243.38,-7.76 310.55,-7.76 310.55,-7.76 316.55,-7.76 322.55,-13.76 322.55,-19.76 322.55,-19.76 322.55,-37.16 322.55,-37.16 322.55,-43.16 316.55,-49.16 310.55,-49.16"/>
<text xml:space="preserve" text-anchor="middle" x="276.96" y="-31.51" font-family="Helvetica,sans-Serif" font-size="11.00">verified=true</text>
<text xml:space="preserve" text-anchor="middle" x="276.96" y="-18.01" font-family="Helvetica,sans-Serif" font-size="11.00">(manual only)</text>
</g>
<!-- valid&#45;&gt;verified -->
<!-- queue -->
<g id="node4" class="node">
<title>queue</title>
<path fill="#eaf4ea" stroke="#555555" d="M716.55,-143.82C716.55,-145.74 694.77,-147.31 667.96,-147.31 641.15,-147.31 619.38,-145.74 619.38,-143.82 619.38,-143.82 619.38,-112.43 619.38,-112.43 619.38,-110.51 641.15,-108.94 667.96,-108.94 694.77,-108.94 716.55,-110.51 716.55,-112.43 716.55,-112.43 716.55,-143.82 716.55,-143.82"/>
<path fill="none" stroke="#555555" d="M716.55,-143.82C716.55,-141.89 694.77,-140.33 667.96,-140.33 641.15,-140.33 619.38,-141.89 619.38,-143.82"/>
<text xml:space="preserve" text-anchor="middle" x="667.96" y="-124.42" font-family="Helvetica,sans-Serif" font-size="11.00">Review Queue</text>
</g>
<!-- align&#45;&gt;queue -->
<g id="edge3" class="edge">
<title>align&#45;&gt;queue</title>
<path fill="none" stroke="#555555" d="M556.38,-128C556.38,-128 610.57,-128 610.57,-128"/>
<polygon fill="#555555" stroke="#555555" points="610.57,-130.45 617.57,-128 610.57,-125.55 610.57,-130.45"/>
</g>
<!-- verify -->
<g id="node8" class="node">
<title>verify</title>
<path fill="#ffe9c7" stroke="#555555" d="M525.3,-49.16C525.3,-49.16 432.63,-49.16 432.63,-49.16 426.63,-49.16 420.63,-43.16 420.63,-37.16 420.63,-37.16 420.63,-19.76 420.63,-19.76 420.63,-13.76 426.63,-7.76 432.63,-7.76 432.63,-7.76 525.3,-7.76 525.3,-7.76 531.3,-7.76 537.3,-13.76 537.3,-19.76 537.3,-19.76 537.3,-37.16 537.3,-37.16 537.3,-43.16 531.3,-49.16 525.3,-49.16"/>
<text xml:space="preserve" text-anchor="middle" x="478.96" y="-31.51" font-family="Helvetica,sans-Serif" font-size="11.00">Human Verification</text>
<text xml:space="preserve" text-anchor="middle" x="478.96" y="-18.01" font-family="Helvetica,sans-Serif" font-size="11.00">Gate</text>
</g>
<!-- align&#45;&gt;verify -->
<!-- human -->
<g id="node5" class="node">
<title>human</title>
<path fill="#ffe9c7" stroke="#555555" d="M899.67,-148.82C899.67,-148.82 794.25,-148.82 794.25,-148.82 788.25,-148.82 782.25,-142.82 782.25,-136.82 782.25,-136.82 782.25,-119.42 782.25,-119.42 782.25,-113.42 788.25,-107.42 794.25,-107.42 794.25,-107.42 899.67,-107.42 899.67,-107.42 905.67,-107.42 911.67,-113.42 911.67,-119.42 911.67,-119.42 911.67,-136.82 911.67,-136.82 911.67,-142.82 905.67,-148.82 899.67,-148.82"/>
<text xml:space="preserve" text-anchor="middle" x="846.96" y="-131.18" font-family="Helvetica,sans-Serif" font-size="11.00">Human Decision</text>
<text xml:space="preserve" text-anchor="middle" x="846.96" y="-117.67" font-family="Helvetica,sans-Serif" font-size="11.00">(keep / revise / reject)</text>
</g>
<!-- queue&#45;&gt;human -->
<g id="edge4" class="edge">
<title>queue&#45;&gt;human</title>
<path fill="none" stroke="#555555" d="M716.87,-128C716.87,-128 773.48,-128 773.48,-128"/>
<polygon fill="#555555" stroke="#555555" points="773.48,-130.45 780.48,-128 773.48,-125.55 773.48,-130.45"/>
</g>
<!-- pdfcheck -->
<g id="node7" class="node">
<title>pdfcheck</title>
<path fill="#f4f4f2" stroke="#555555" d="M722.17,-49.16C722.17,-49.16 613.75,-49.16 613.75,-49.16 607.75,-49.16 601.75,-43.16 601.75,-37.16 601.75,-37.16 601.75,-19.76 601.75,-19.76 601.75,-13.76 607.75,-7.76 613.75,-7.76 613.75,-7.76 722.17,-7.76 722.17,-7.76 728.17,-7.76 734.17,-13.76 734.17,-19.76 734.17,-19.76 734.17,-37.16 734.17,-37.16 734.17,-43.16 728.17,-49.16 722.17,-49.16"/>
<text xml:space="preserve" text-anchor="middle" x="667.96" y="-31.51" font-family="Helvetica,sans-Serif" font-size="11.00">PDF Page Check</text>
<text xml:space="preserve" text-anchor="middle" x="667.96" y="-18.01" font-family="Helvetica,sans-Serif" font-size="11.00">(required for high&#45;risk)</text>
</g>
<!-- queue&#45;&gt;pdfcheck -->
<!-- promoted -->
<g id="node6" class="node">
<title>promoted</title>
<path fill="#eaf4ea" stroke="#555555" d="M896.3,-51.75C896.3,-54.61 874.18,-56.92 846.96,-56.92 819.74,-56.92 797.62,-54.61 797.62,-51.75 797.62,-51.75 797.62,-5.18 797.62,-5.18 797.62,-2.32 819.74,0 846.96,0 874.18,0 896.3,-2.32 896.3,-5.18 896.3,-5.18 896.3,-51.75 896.3,-51.75"/>
<path fill="none" stroke="#555555" d="M896.3,-51.75C896.3,-48.89 874.18,-46.58 846.96,-46.58 819.74,-46.58 797.62,-48.89 797.62,-51.75"/>
<text xml:space="preserve" text-anchor="middle" x="846.96" y="-31.51" font-family="Helvetica,sans-Serif" font-size="11.00">Promoted Row</text>
<text xml:space="preserve" text-anchor="middle" x="846.96" y="-18.01" font-family="Helvetica,sans-Serif" font-size="11.00">verified=false</text>
</g>
<!-- human&#45;&gt;promoted -->
<g id="edge9" class="edge">
<title>human&#45;&gt;promoted</title>
<path fill="none" stroke="#555555" d="M846.96,-106.99C846.96,-106.99 846.96,-65.64 846.96,-65.64"/>
<polygon fill="#555555" stroke="#555555" points="849.41,-65.64 846.96,-58.64 844.51,-65.64 849.41,-65.64"/>
<text xml:space="preserve" text-anchor="middle" x="863.84" y="-78.88" font-family="Helvetica,sans-Serif" font-size="9.00">promote</text>
</g>
<!-- promoted&#45;&gt;pdfcheck -->
<g id="edge10" class="edge">
<title>promoted&#45;&gt;pdfcheck</title>
<path fill="none" stroke="#555555" d="M797.57,-28C797.57,-28 743.12,-28 743.12,-28"/>
<polygon fill="#555555" stroke="#555555" points="743.12,-25.55 736.12,-28 743.12,-30.45 743.12,-25.55"/>
</g>
<!-- pdfcheck&#45;&gt;verify -->
<g id="edge11" class="edge">
<title>pdfcheck&#45;&gt;verify</title>
<path fill="none" stroke="#555555" d="M601.33,-28C601.33,-28 546.28,-28 546.28,-28"/>
<polygon fill="#555555" stroke="#555555" points="546.28,-25.55 539.28,-28 546.28,-30.45 546.28,-25.55"/>
</g>
<!-- verify&#45;&gt;verified -->
<g id="edge12" class="edge">
<title>verify&#45;&gt;verified</title>
<path fill="none" stroke="#555555" d="M420.26,-28C420.26,-28 331.47,-28 331.47,-28"/>
<polygon fill="#555555" stroke="#555555" points="331.47,-25.55 324.47,-28 331.47,-30.45 331.47,-25.55"/>
</g>
</g>
</svg>
