<?xml version="1.0" encoding="UTF-8" standalone="no"?>
<!DOCTYPE svg PUBLIC "-//W3C//DTD SVG 1.1//EN"
 "http://www.w3.org/Graphics/SVG/1.1/DTD/svg11.dtd">
<!-- Generated by graphviz version 14.1.4 (20260321.0153)
 -->
<!-- Title: fig_pipeline Pages: 1 -->
<svg width="374pt" height="994pt"
 viewBox="0.00 0.00 374.00 994.00" xmlns="http://www.w3.org/2000/svg" xmlns:xlink="http://www.w3.org/1999/xlink">
<g id="graph0" class="graph" transform="scale(1 1) rotate(0) translate(14.4 979.25)">
<title>fig_pipeline</title>
<polygon fill="white" stroke="none" points="-14.4,14.4 -14.4,-979.25 359.86,-979.25 359.86,14.4 -14.4,14.4"/>
<g id="clust1" class="cluster">
<title>cluster_auto</title>
<polygon fill="none" stroke="#999999" stroke-dasharray="5,2" points="8,-564.55 8,-956.85 184,-956.85 184,-564.55 8,-564.55"/>
<text xml:space="preserve" text-anchor="middle" x="96" y="-942.4" font-family="Helvetica,sans-Serif" font-size="11.00">Automated collection &amp; extraction</text>
</g>
<g id="clust2" class="cluster">
<title>cluster_gov</title>
<polygon fill="none" stroke="#999999" stroke-dasharray="5,2" points="25,-8 25,-543.55 168,-543.55 168,-8 25,-8"/>
<text xml:space="preserve" text-anchor="middle" x="96.5" y="-529.1" font-family="Helvetica,sans-Serif" font-size="11.00">Governed review &amp; writing</text>
</g>
<!-- collect -->
<g id="node1" class="node">
<title>collect</title>
<path fill="#f4f4f2" stroke="#555555" d="M152.46,-927.35C152.46,-927.35 39.54,-927.35 39.54,-927.35 33.54,-927.35 27.54,-921.35 27.54,-915.35 27.54,-915.35 27.54,-897.95 27.54,-897.95 27.54,-891.95 33.54,-885.95 39.54,-885.95 39.54,-885.95 152.46,-885.95 152.46,-885.95 158.46,-885.95 164.46,-891.95 164.46,-897.95 164.46,-897.95 164.46,-915.35 164.46,-915.35 164.46,-921.35 158.46,-927.35 152.46,-927.35"/>
<text xml:space="preserve" text-anchor="middle" x="96" y="-909.7" font-family="Helvetica,sans-Serif" font-size="11.00">Collect</text>
<text xml:space="preserve" text-anchor="middle" x="96" y="-896.2" font-family="Helvetica,sans-Serif" font-size="11.00">(arXiv / S2 / OpenAlex)</text>
</g>
<!-- screen -->
<g id="node2" class="node">
<title>screen</title>
<path fill="#f4f4f2" stroke="#555555" d="M135.21,-844.95C135.21,-844.95 56.79,-844.95 56.79,-844.95 50.79,-844.95 44.79,-838.95 44.79,-832.95 44.79,-832.95 44.79,-820.95 44.79,-820.95 44.79,-814.95 50.79,-808.95 56.79,-808.95 56.79,-808.95 135.21,-808.95 135.21,-808.95 141.21,-808.95 147.21,-814.95 147.21,-820.95 147.21,-820.95 147.21,-832.95 147.21,-832.95 147.21,-838.95 141.21,-844.95 135.21,-844.95"/>
<text xml:space="preserve" text-anchor="middle" x="96" y="-823.25" font-family="Helvetica,sans-Serif" font-size="11.00">Score &amp; Screen</text>
</g>
<!-- collect&#45;&gt;screen -->
<g id="edge1" class="edge">
<title>collect&#45;&gt;screen</title>
<path fill="none" stroke="#555555" d="M96,-885.71C96,-885.71 96,-853.82 96,-853.82"/>
<polygon fill="#555555" stroke="#555555" points="98.45,-853.82 96,-846.82 93.55,-853.82 98.45,-853.82"/>
</g>
<!-- pdf -->
<g id="node3" class="node">
<title>pdf</title>
<path fill="#f4f4f2" stroke="#555555" d="M134.09,-767.95C134.09,-767.95 57.91,-767.95 57.91,-767.95 51.91,-767.95 45.91,-761.95 45.91,-755.95 45.91,-755.95 45.91,-743.95 45.91,-743.95 45.91,-737.95 51.91,-731.95 57.91,-731.95 57.91,-731.95 134.09,-731.95 134.09,-731.95 140.09,-731.95 146.09,-737.95 146.09,-743.95 146.09,-743.95 146.09,-755.95 146.09,-755.95 146.09,-761.95 140.09,-767.95 134.09,-767.95"/>
<text xml:space="preserve" text-anchor="middle" x="96" y="-746.25" font-family="Helvetica,sans-Serif" font-size="11.00">PDF Download</text>
</g>
<!-- screen&#45;&gt;pdf -->
<g id="edge2" class="edge">
<title>screen&#45;&gt;pdf</title>
<path fill="none" stroke="#555555" d="M96,-808.7C96,-808.7 96,-776.85 96,-776.85"/>
<polygon fill="#555555" stroke="#555555" points="98.45,-776.85 96,-769.85 93.55,-776.85 98.45,-776.85"/>
</g>
<!-- grobid -->
<g id="node4" class="node">
<title>grobid</title>
<path fill="#f4f4f2" stroke="#555555" d="M134.46,-690.95C134.46,-690.95 57.54,-690.95 57.54,-690.95 51.54,-690.95 45.54,-684.95 45.54,-678.95 45.54,-678.95 45.54,-666.95 45.54,-666.95 45.54,-660.95 51.54,-654.95 57.54,-654.95 57.54,-654.95 134.46,-654.95 134.46,-654.95 140.46,-654.95 146.46,-660.95 146.46,-666.95 146.46,-666.95 146.46,-678.95 146.46,-678.95 146.46,-684.95 140.46,-690.95 134.46,-690.95"/>
<text xml:space="preserve" text-anchor="middle" x="96" y="-669.25" font-family="Helvetica,sans-Serif" font-size="11.00">GROBID Parse</text>
</g>
<!-- pdf&#45;&gt;grobid -->
<g id="edge3" class="edge">
<title>pdf&#45;&gt;grobid</title>
<path fill="none" stroke="#555555" d="M96,-731.7C96,-731.7 96,-699.85 96,-699.85"/>
<polygon fill="#555555" stroke="#555555" points="98.45,-699.85 96,-692.85 93.55,-699.85 98.45,-699.85"/>
</g>
<!-- extract -->
<g id="node5" class="node">
<title>extract</title>
<path fill="#f4f4f2" stroke="#555555" d="M145.34,-613.95C145.34,-613.95 46.66,-613.95 46.66,-613.95 40.66,-613.95 34.66,-607.95 34.66,-601.95 34.66,-601.95 34.66,-584.55 34.66,-584.55 34.66,-578.55 40.66,-572.55 46.66,-572.55 46.66,-572.55 145.34,-572.55 145.34,-572.55 151.34,-572.55 157.34,-578.55 157.34,-584.55 157.34,-584.55 157.34,-601.95 157.34,-601.95 157.34,-607.95 151.34,-613.95 145.34,-613.95"/>
<text xml:space="preserve" text-anchor="middle" x="96" y="-596.3" font-family="Helvetica,sans-Serif" font-size="11.00">Evidence Candidate</text>
<text xml:space="preserve" text-anchor="middle" x="96" y="-582.8" font-family="Helvetica,sans-Serif" font-size="11.00">Extraction</text>
</g>
<!-- grobid&#45;&gt;extract -->
<g id="edge4" class="edge">
<title>grobid&#45;&gt;extract</title>
<path fill="none" stroke="#555555" d="M96,-654.46C96,-654.46 96,-622.68 96,-622.68"/>
<polygon fill="#555555" stroke="#555555" points="98.45,-622.68 96,-615.68 93.55,-622.68 98.45,-622.68"/>
</g>
<!-- review -->
<g id="node6" class="node">
<title>review</title>
<path fill="#ffe9c7" stroke="#555555" d="M134.09,-514.05C134.09,-514.05 57.91,-514.05 57.91,-514.05 51.91,-514.05 45.91,-508.05 45.91,-502.05 45.91,-502.05 45.91,-484.65 45.91,-484.65 45.91,-478.65 51.91,-472.65 57.91,-472.65 57.91,-472.65 134.09,-472.65 134.09,-472.65 140.09,-472.65 146.09,-478.65 146.09,-484.65 146.09,-484.65 146.09,-502.05 146.09,-502.05 146.09,-508.05 140.09,-514.05 134.09,-514.05"/>
<text xml:space="preserve" text-anchor="middle" x="96" y="-496.4" font-family="Helvetica,sans-Serif" font-size="11.00">Human Review</text>
<text xml:space="preserve" text-anchor="middle" x="96" y="-482.9" font-family="Helvetica,sans-Serif" font-size="11.00">(review queue)</text>
</g>
<!-- extract&#45;&gt;review -->
<g id="edge10" class="edge">
<title>extract&#45;&gt;review</title>
<path fill="none" stroke="#555555" d="M96,-572.06C96,-572.06 96,-523.02 96,-523.02"/>
<polygon fill="#555555" stroke="#555555" points="98.45,-523.02 96,-516.02 93.55,-523.02 98.45,-523.02"/>
</g>
<!-- matrix -->
<g id="node7" class="node">
<title>matrix</title>
<path fill="#eaf4ea" stroke="#555555" d="M148.71,-416.97C148.71,-419.83 125.08,-422.15 96,-422.15 66.92,-422.15 43.29,-419.83 43.29,-416.97 43.29,-416.97 43.29,-370.4 43.29,-370.4 43.29,-367.54 66.92,-365.22 96,-365.22 125.08,-365.22 148.71,-367.54 148.71,-370.4 148.71,-370.4 148.71,-416.97 148.71,-416.97"/>
<path fill="none" stroke="#555555" d="M148.71,-416.97C148.71,-414.12 125.08,-411.8 96,-411.8 66.92,-411.8 43.29,-414.12 43.29,-416.97"/>
<text xml:space="preserve" text-anchor="middle" x="96" y="-396.74" font-family="Helvetica,sans-Serif" font-size="11.00">Evidence Matrix</text>
<text xml:space="preserve" text-anchor="middle" x="96" y="-383.24" font-family="Helvetica,sans-Serif" font-size="11.00">(promoted rows)</text>
</g>
<!-- review&#45;&gt;matrix -->
<g id="edge5" class="edge">
<title>review&#45;&gt;matrix</title>
<path fill="none" stroke="#555555" d="M96,-472.21C96,-472.21 96,-430.87 96,-430.87"/>
<polygon fill="#555555" stroke="#555555" points="98.45,-430.87 96,-423.87 93.55,-430.87 98.45,-430.87"/>
<text xml:space="preserve" text-anchor="middle" x="112.88" y="-444.1" font-family="Helvetica,sans-Serif" font-size="9.00">promote</text>
</g>
<!-- preview -->
<g id="node8" class="node">
<title>preview</title>
<path fill="#f4f4f2" stroke="#555555" d="M138.59,-324.22C138.59,-324.22 53.41,-324.22 53.41,-324.22 47.41,-324.22 41.41,-318.22 41.41,-312.22 41.41,-312.22 41.41,-294.82 41.41,-294.82 41.41,-288.82 47.41,-282.82 53.41,-282.82 53.41,-282.82 138.59,-282.82 138.59,-282.82 144.59,-282.82 150.59,-288.82 150.59,-294.82 150.59,-294.82 150.59,-312.22 150.59,-312.22 150.59,-318.22 144.59,-324.22 138.59,-324.22"/>
<text xml:space="preserve" text-anchor="middle" x="96" y="-306.57" font-family="Helvetica,sans-Serif" font-size="11.00">Manuscript Patch</text>
<text xml:space="preserve" text-anchor="middle" x="96" y="-293.07" font-family="Helvetica,sans-Serif" font-size="11.00">Preview + Diff</text>
</g>
<!-- matrix&#45;&gt;preview -->
<g id="edge6" class="edge">
<title>matrix&#45;&gt;preview</title>
<path fill="none" stroke="#555555" d="M96,-365.16C96,-365.16 96,-333.23 96,-333.23"/>
<polygon fill="#555555" stroke="#555555" points="98.45,-333.23 96,-326.23 93.55,-333.23 98.45,-333.23"/>
</g>
<!-- approve -->
<g id="node9" class="node">
<title>approve</title>
<path fill="#ffe9c7" stroke="#555555" d="M137.09,-241.82C137.09,-241.82 54.91,-241.82 54.91,-241.82 48.91,-241.82 42.91,-235.82 42.91,-229.82 42.91,-229.82 42.91,-217.82 42.91,-217.82 42.91,-211.82 48.91,-205.82 54.91,-205.82 54.91,-205.82 137.09,-205.82 137.09,-205.82 143.09,-205.82 149.09,-211.82 149.09,-217.82 149.09,-217.82 149.09,-229.82 149.09,-229.82 149.09,-235.82 143.09,-241.82 137.09,-241.82"/>
<text xml:space="preserve" text-anchor="middle" x="96" y="-220.12" font-family="Helvetica,sans-Serif" font-size="11.00">Human Approval</text>
</g>
<!-- preview&#45;&gt;approve -->
<g id="edge7" class="edge">
<title>preview&#45;&gt;approve</title>
<path fill="none" stroke="#555555" d="M96,-282.58C96,-282.58 96,-250.7 96,-250.7"/>
<polygon fill="#555555" stroke="#555555" points="98.45,-250.7 96,-243.7 93.55,-250.7 98.45,-250.7"/>
</g>
<!-- apply -->
<g id="node10" class="node">
<title>apply</title>
<path fill="#f4f4f2" stroke="#555555" d="M143.84,-164.82C143.84,-164.82 48.16,-164.82 48.16,-164.82 42.16,-164.82 36.16,-158.82 36.16,-152.82 36.16,-152.82 36.16,-135.43 36.16,-135.43 36.16,-129.43 42.16,-123.42 48.16,-123.42 48.16,-123.42 143.84,-123.42 143.84,-123.42 149.84,-123.42 155.84,-129.43 155.84,-135.43 155.84,-135.43 155.84,-152.82 155.84,-152.82 155.84,-158.82 149.84,-164.82 143.84,-164.82"/>
<text xml:space="preserve" text-anchor="middle" x="96" y="-147.18" font-family="Helvetica,sans-Serif" font-size="11.00">Guarded Apply</text>
<text xml:space="preserve" text-anchor="middle" x="96" y="-133.68" font-family="Helvetica,sans-Serif" font-size="11.00">(backup + LF write)</text>
</g>
<!-- approve&#45;&gt;apply -->
<g id="edge8" class="edge">
<title>approve&#45;&gt;apply</title>
<path fill="none" stroke="#555555" d="M96,-205.34C96,-205.34 96,-173.55 96,-173.55"/>
<polygon fill="#555555" stroke="#555555" points="98.45,-173.55 96,-166.55 93.55,-173.55 98.45,-173.55"/>
</g>
<!-- guard -->
<g id="node11" class="node">
<title>guard</title>
<path fill="#dce9f7" stroke="#555555" d="M333.46,-65.16C333.46,-65.16 190.54,-65.16 190.54,-65.16 184.54,-65.16 178.54,-59.16 178.54,-53.16 178.54,-53.16 178.54,-35.76 178.54,-35.76 178.54,-29.76 184.54,-23.76 190.54,-23.76 190.54,-23.76 333.46,-23.76 333.46,-23.76 339.46,-23.76 345.46,-29.76 345.46,-35.76 345.46,-35.76 345.46,-53.16 345.46,-53.16 345.46,-59.16 339.46,-65.16 333.46,-65.16"/>
<text xml:space="preserve" text-anchor="middle" x="262" y="-47.51" font-family="Helvetica,sans-Serif" font-size="11.00">Guards</text>
<text xml:space="preserve" text-anchor="middle" x="262" y="-34.01" font-family="Helvetica,sans-Serif" font-size="11.00">(no&#45;auto&#45;verified, smoke&#45;test)</text>
</g>
<!-- apply&#45;&gt;guard -->
<g id="edge11" class="edge">
<title>apply&#45;&gt;guard</title>
<path fill="none" stroke="#555555" stroke-dasharray="5,2" d="M151.15,-123.38C151.15,-94.05 151.15,-44 151.15,-44 151.15,-44 169.75,-44 169.75,-44"/>
<polygon fill="#555555" stroke="#555555" points="169.75,-46.45 176.75,-44 169.75,-41.55 169.75,-46.45"/>
<text xml:space="preserve" text-anchor="middle" x="157.12" y="-94.88" font-family="Helvetica,sans-Serif" font-size="9.00">post&#45;check</text>
</g>
<!-- thesis -->
<g id="node12" class="node">
<title>thesis</title>
<path fill="#eaf4ea" stroke="#555555" d="M146.46,-67.75C146.46,-70.61 121.15,-72.92 90,-72.92 58.85,-72.92 33.54,-70.61 33.54,-67.75 33.54,-67.75 33.54,-21.18 33.54,-21.18 33.54,-18.32 58.85,-16 90,-16 121.15,-16 146.46,-18.32 146.46,-21.18 146.46,-21.18 146.46,-67.75 146.46,-67.75"/>
<path fill="none" stroke="#555555" d="M146.46,-67.75C146.46,-64.89 121.15,-62.58 90,-62.58 58.85,-62.58 33.54,-64.89 33.54,-67.75"/>
<text xml:space="preserve" text-anchor="middle" x="90" y="-47.51" font-family="Helvetica,sans-Serif" font-size="11.00">Thesis Manuscript</text>
<text xml:space="preserve" text-anchor="middle" x="90" y="-34.01" font-family="Helvetica,sans-Serif" font-size="11.00">(Quarto)</text>
</g>
<!-- apply&#45;&gt;thesis -->
<g id="edge9" class="edge">
<title>apply&#45;&gt;thesis</title>
<path fill="none" stroke="#555555" d="M91.31,-122.99C91.31,-122.99 91.31,-81.64 91.31,-81.64"/>
<polygon fill="#555555" stroke="#555555" points="93.76,-81.64 91.31,-74.64 88.86,-81.64 93.76,-81.64"/>
</g>
<!-- guard&#45;&gt;matrix -->
<g id="edge12" class="edge">
<title>guard&#45;&gt;matrix</title>
<path fill="none" stroke="#555555" stroke-dasharray="5,2" d="M262,-65.54C262,-141.11 262,-394 262,-394 262,-394 157.49,-394 157.49,-394"/>
<polygon fill="#555555" stroke="#555555" points="157.49,-391.55 150.49,-394 157.49,-396.45 157.49,-391.55"/>
<text xml:space="preserve" text-anchor="middle" x="223.12" y="-220.52" font-family="Helvetica,sans-Serif" font-size="9.00">audit</text>
</g>
</g>
</svg>
